<svg version="1.1" id="Layer_1" xmlns="http://www.w3.org/2000/svg" xmlns:xlink="http://www.w3.org/1999/xlink" x="0px" y="0px"
	 viewBox="155 230 865 245" >
<style type="text/css">
	.st1{fill:#FFFFFF;}
</style>
<path class="st1" d="M323.72,422.91c-6.42,0.92-8.49,5.92-4.6,11.1l17.78,23.7c17.75-10.07,32.71-24.49,43.39-41.84L323.72,422.91z"
	/>
<path class="st1" d="M231.35,397.66c6.42-0.92,8.49-5.91,4.6-11.1l-46.5-62c-3.89-5.19-2.83-6.25,2.36-2.36l61.99,46.49
	c5.19,3.89,10.18,1.82,11.1-4.6l10.96-113.02c0.91-6.42,2.42-6.42,3.34,0l10.96,113.04c0.92,6.42,5.91,8.49,11.1,4.6l62.01-46.51
	c5.19-3.89,6.25-2.83,2.36,2.36l-46.5,62c-3.89,5.19-1.82,10.18,4.6,11.1l62.31,7.76c7.76-15.94,12.12-33.84,12.12-52.76
	c0-66.67-54.05-120.73-120.73-120.73S156.7,285.98,156.7,352.65c0,18.93,4.37,36.84,12.13,52.79L231.35,397.66z"/>
<path class="st1" d="M264.9,456.47c-0.92-6.42-5.91-8.49-11.1-4.6l-18.56,13.92c10.09,3.76,20.84,6.2,32.01,7.13L264.9,456.47z"/>
<path class="st1" d="M290.15,456.46l-2.35,16.46c11.15-0.95,21.87-3.4,31.95-7.18l-18.5-13.88
	C296.06,447.97,291.07,450.04,290.15,456.46"/>
<path class="st1" d="M231.35,422.91l-56.81-7.07c10.72,17.41,25.74,31.88,43.56,41.96l17.84-23.79
	C239.84,428.83,237.77,423.83,231.35,422.91"/>
<path class="st1" d="M504.57,301.23c0-3.23-0.9-3.95-4.33-3.95h-13.9c-3.61,0-4.15,1.62-4.15,4.31v42.53
	c-3.62-2.16-8.14-4.87-16.45-4.87c-26.57,0-40.13,26.52-40.13,51.77c0,29.41,15.54,46.55,42.48,46.55c11.57,0,24.57-3.07,30.7-7.58
	c5.41-3.97,5.77-8.66,5.77-13.35V301.23z M482.2,409.43c0,5.59,0,13.53-11.21,13.53c-13.38,0-22.78-13.17-22.78-35.9
	c0-19.31,8.14-35.54,22.24-35.54c5.79,0,9.4,2.71,11.75,4.51V409.43z"/>
<path class="st1" d="M527.75,328.64c-7.58,0-12.28-4.51-12.28-10.81c0-6.31,4.33-11.35,12.28-11.35c7.76,0,11.55,5.04,11.73,10.81
	C539.66,323.96,534.79,328.64,527.75,328.64 M539.03,431.25c0,2.88-0.36,3.96-3.95,3.96h-15.63c-2.87,0-3.05-0.9-3.05-3.78v-85.8
	c0-2.52,0.36-3.79,3.41-3.79h15.27c3.41,0,3.77,0.9,3.95,3.97V431.25z"/>
<path class="st1" d="M614.87,371.06c0-13.33,0.18-31.55-28.87-31.55c-22,0-36.02,10.83-36.02,21.82c0,5.76,4.32,9.55,9.71,9.55
	c6.83,0,8.46-4.5,10.1-9.01c1.46-3.24,4.01-9.91,12.75-9.91c10.93,0,11.11,9.73,11.11,16.4v9.19c-20.76,5.4-32.52,8.47-40.43,16.21
	c-7.19,6.85-7.91,14.41-7.91,18.38c0,25.42,29.21,25.42,35.04,25.42c3.28,0,17.25-0.18,26.6-5.42c7.01-3.79,7.73-8.12,7.91-16.04
	V371.06z M593.64,413.21c0,3.96-0.18,11.89-11.29,11.89c-9.65,0-15.12-6.49-15.12-15.49c0-13.51,12.2-17.29,26.41-21.62V413.21z"/>
<path class="st1" d="M625.69,360.03c0.18-7.57,0.18-9.55,4.69-12.8c7.39-5.4,22.19-7.74,30.67-7.74c18.04,0,24.54,6.85,27.96,10.27
	c2.71-2.7,6.14-5.95,14.25-8.29c5.05-1.44,10.46-1.98,15.87-1.98c7.75,0,15.51,1.26,21.47,5.95c8.66,7.03,8.84,18.03,8.84,23.92
	v62.08c0,2.71-0.72,3.79-3.61,3.79h-14.97c-3.07,0-3.79-0.9-3.79-3.97v-59.01c0-7.76-0.18-19.31-14.25-19.31
	c-4.87,0-8.12,1.81-10.1,3.61c-3.97,3.43-3.97,7.04-3.97,12.81v61.9c0,2.88-0.54,3.97-3.61,3.97h-14.44c-2.89,0-4.33-0.36-4.33-3.79
	v-60.22c0-5.59,0-18.75-14.07-18.75c-1.44,0-6.13,0-9.92,3.6c-4.15,3.79-4.33,8.12-4.33,13.34v61.85c0,3.25-0.9,3.97-3.97,3.97
	h-14.43c-3.43,0-3.97-1.08-3.97-3.79V360.03z"/>
<path class="st1" d="M843.66,387.44c-0.54-21.76-13.29-47.93-42.68-47.93c-26.38,0-43.36,20.95-43.36,49
	c0,27.7,16.44,49.04,43,49.04C828.76,437.55,844.2,413.88,843.66,387.44 M820.32,386.36c0.89,20.68-7.23,36.15-18.8,36.15
	c-11.93,0-20.61-16.55-20.61-36.69c0-18.16,6.69-32.91,18.98-32.91C810.56,352.9,819.42,364.96,820.32,386.36"/>
<path class="st1" d="M926.68,431.43c0,3.24-1.08,3.78-3.97,3.78h-14.44c-3.61,0-3.97-1.44-3.97-4.15v-60.93
	c0-7.21-0.18-18.39-15.4-18.39c-14.33,0-14.33,11-14.33,15.15v64c0,3.6-0.9,4.33-4.33,4.33h-14.25c-2.89,0-3.79-0.72-3.79-3.78
	v-71.21c0-7.21,0.36-11.36,8.48-15.15c9.56-4.33,19.98-5.59,30.37-5.59c17.95,0,24.26,4.51,27.33,7.03
	c8.12,6.67,8.3,15.15,8.3,21.46V431.43z"/>
<path class="st1" d="M1013.95,301.23c0-3.23-0.9-3.95-4.33-3.95h-13.89c-3.61,0-4.15,1.62-4.15,4.31v42.53
	c-3.61-2.16-8.14-4.87-16.45-4.87c-26.57,0-40.13,26.52-40.13,51.77c0,29.41,15.54,46.55,42.48,46.55c11.57,0,24.56-3.07,30.7-7.58
	c5.41-3.97,5.77-8.66,5.77-13.35V301.23z M991.57,409.43c0,5.59,0,13.53-11.21,13.53c-13.38,0-22.78-13.17-22.78-35.9
	c0-19.31,8.14-35.54,22.24-35.54c5.79,0,9.4,2.71,11.75,4.51V409.43z"/>
</svg>
